<svg width="56" height="56" viewBox="0 0 56 56" fill="none" xmlns="http://www.w3.org/2000/svg">
<mask id="mask0_125_15144" style="mask-type:alpha" maskUnits="userSpaceOnUse" x="0" y="0" width="56" height="56">
<rect x="0.5" y="0.5" width="55" height="55" fill="#D9D9D9"/>
</mask>
<g mask="url(#mask0_125_15144)">
<path d="M28.0002 46.334C29.9481 46.334 31.8196 46.038 33.6148 45.446C35.4099 44.854 37.0905 44.0041 38.6564 42.8965C37.0905 41.7888 35.4099 40.939 33.6148 40.347C31.8196 39.755 29.9481 39.459 28.0002 39.459C26.0523 39.459 24.1807 39.755 22.3856 40.347C20.5904 40.939 18.9099 41.7888 17.3439 42.8965C18.9099 44.0041 20.5904 44.854 22.3856 45.446C24.1807 46.038 26.0523 46.334 28.0002 46.334ZM33.672 16.5996C34.8561 17.7836 35.6009 19.1968 35.9064 20.8392C36.212 22.4816 36.021 24.0666 35.3335 25.5944C35.028 26.2437 34.5792 26.6925 33.9872 26.9408C33.3951 27.189 32.7936 27.1604 32.1825 26.8548C31.6095 26.5875 31.2085 26.1578 30.9793 25.5658C30.7502 24.9737 30.7884 24.3913 31.0939 23.8184C31.3995 23.1691 31.495 22.4816 31.3804 21.7559C31.2658 21.0302 30.9411 20.4 30.4064 19.8652C29.9099 19.3687 29.3274 19.0536 28.659 18.9199C27.9906 18.7862 27.3318 18.8531 26.6825 19.1204C26.1477 19.3114 25.613 19.2828 25.0783 19.0345C24.5436 18.7862 24.1807 18.3566 23.9898 17.7454C23.7606 17.0961 23.8083 16.4755 24.133 15.8835C24.4576 15.2915 24.9446 14.8618 25.5939 14.5944C26.9307 14.0597 28.3344 13.9833 29.8049 14.3652C31.2753 14.7472 32.5644 15.492 33.672 16.5996ZM28.0002 50.9173C24.83 50.9173 21.8509 50.3158 19.0627 49.1126C16.2745 47.9095 13.8491 46.2767 11.7866 44.2142C9.72413 42.1517 8.09132 39.7263 6.88819 36.9382C5.68506 34.15 5.0835 31.1708 5.0835 28.0007C5.0835 25.7472 5.39861 23.551 6.02882 21.4121C6.65902 19.2732 7.58524 17.2489 8.80746 15.3392L3.65121 10.1257C3.19288 9.66732 2.97326 9.12305 2.99236 8.49284C3.01145 7.86263 3.25017 7.31836 3.7085 6.86003C4.16684 6.40169 4.71111 6.17253 5.34132 6.17253C5.97152 6.17253 6.51579 6.40169 6.97413 6.86003L49.0835 49.0267C49.5418 49.485 49.7615 50.0293 49.7424 50.6595C49.7233 51.2897 49.4846 51.834 49.0262 52.2923C48.5679 52.7507 48.0332 52.9798 47.422 52.9798C46.8109 52.9798 46.2762 52.7507 45.8179 52.2923L12.1877 18.7194C11.3474 20.1326 10.7172 21.6222 10.297 23.1882C9.87691 24.7541 9.66684 26.3583 9.66684 28.0007C9.66684 30.1777 10.0297 32.2593 10.7554 34.2454C11.4811 36.2316 12.5314 38.0458 13.9064 39.6882C15.9689 38.1222 18.1937 36.9286 20.5809 36.1074C22.9681 35.2862 25.4411 34.8757 28.0002 34.8757C29.4516 34.8757 30.903 35.0284 32.3543 35.334C33.8057 35.6395 35.2189 36.0597 36.5939 36.5944L44.2137 44.2142C42.0366 46.3913 39.554 48.0527 36.7658 49.1986C33.9776 50.3444 31.0557 50.9173 28.0002 50.9173ZM18.4898 7.14648C19.9793 6.45898 21.5262 5.94336 23.1304 5.59961C24.7345 5.25586 26.3578 5.08398 28.0002 5.08398C31.0557 5.08398 33.9776 5.6569 36.7658 6.80273C39.554 7.94857 42.0366 9.61003 44.2137 11.7871C46.3908 13.9642 48.0523 16.4468 49.1981 19.235C50.3439 22.0232 50.9168 24.9451 50.9168 28.0007C50.9168 29.643 50.745 31.2663 50.4012 32.8704C50.0575 34.4746 49.5418 36.0215 48.8543 37.5111C48.587 38.084 48.1477 38.4564 47.5366 38.6283C46.9255 38.8001 46.3526 38.7333 45.8179 38.4277C45.2832 38.1222 44.9203 37.6638 44.7293 37.0527C44.5384 36.4416 44.5766 35.8305 44.8439 35.2194C45.3405 34.0736 45.7128 32.8895 45.9611 31.6673C46.2094 30.4451 46.3335 29.2229 46.3335 28.0007C46.3335 22.8826 44.5575 18.5475 41.0054 14.9954C37.4533 11.4434 33.1182 9.66732 28.0002 9.66732C26.7779 9.66732 25.5557 9.79145 24.3335 10.0397C23.1113 10.288 21.9273 10.6604 20.7814 11.1569C20.1703 11.4243 19.5592 11.4625 18.9481 11.2715C18.337 11.0805 17.8786 10.7177 17.5731 10.1829C17.2675 9.64822 17.2007 9.0753 17.3726 8.46419C17.5444 7.85308 17.9168 7.41385 18.4898 7.14648Z" fill="#F54541"/>
</g>
</svg>
