<svg width="50" height="50" viewBox="0 0 50 50" fill="none" xmlns="http://www.w3.org/2000/svg">
<mask id="mask0_125_15260" style="mask-type:alpha" maskUnits="userSpaceOnUse" x="0" y="0" width="50" height="50">
<rect width="50" height="50" fill="#D9D9D9"/>
</mask>
<g mask="url(#mask0_125_15260)">
<path d="M25.0001 45.8337C22.1181 45.8337 19.4098 45.2868 16.8751 44.193C14.3404 43.0993 12.1355 41.6149 10.2605 39.7399C8.3855 37.8649 6.90112 35.6601 5.80737 33.1253C4.71362 30.5906 4.16675 27.8823 4.16675 25.0003C4.16675 22.1184 4.71362 19.41 5.80737 16.8753C6.90112 14.3406 8.3855 12.1357 10.2605 10.2607C12.1355 8.38574 14.3404 6.90137 16.8751 5.80762C19.4098 4.71387 22.1181 4.16699 25.0001 4.16699C26.6667 4.16699 28.29 4.35796 29.8699 4.73991C31.4497 5.12185 32.9688 5.67741 34.4272 6.40658C34.948 6.68435 35.2865 7.10102 35.4428 7.65658C35.599 8.21213 35.5036 8.73296 35.1563 9.21908C34.8091 9.70519 34.349 10.0177 33.7761 10.1566C33.2032 10.2955 32.639 10.226 32.0834 9.94824C30.9723 9.42741 29.8178 9.0281 28.6199 8.75033C27.422 8.47255 26.2154 8.33366 25.0001 8.33366C20.3473 8.33366 16.4063 9.94824 13.1772 13.1774C9.948 16.4066 8.33341 20.3475 8.33341 25.0003C8.33341 29.6531 9.948 33.5941 13.1772 36.8232C16.4063 40.0524 20.3473 41.667 25.0001 41.667C25.9029 41.667 26.7883 41.5975 27.6563 41.4587C28.5244 41.3198 29.3924 41.1114 30.2605 40.8337C30.8508 40.66 31.4237 40.6514 31.9792 40.8076C32.5348 40.9639 32.9688 41.3024 33.2813 41.8232C33.5591 42.3094 33.6199 42.8302 33.4636 43.3857C33.3074 43.9413 32.9515 44.3232 32.3959 44.5316C31.2154 44.983 30.0001 45.3128 28.7501 45.5212C27.5001 45.7295 26.2501 45.8337 25.0001 45.8337ZM39.5834 35.417H35.4167C34.8265 35.417 34.3317 35.2173 33.9324 34.818C33.5331 34.4187 33.3334 33.9239 33.3334 33.3337C33.3334 32.7434 33.5331 32.2486 33.9324 31.8493C34.3317 31.45 34.8265 31.2503 35.4167 31.2503H39.5834V27.0837C39.5834 26.4934 39.7831 25.9986 40.1824 25.5993C40.5817 25.2 41.0765 25.0003 41.6667 25.0003C42.257 25.0003 42.7518 25.2 43.1511 25.5993C43.5504 25.9986 43.7501 26.4934 43.7501 27.0837V31.2503H47.9167C48.507 31.2503 49.0018 31.45 49.4011 31.8493C49.8004 32.2486 50.0001 32.7434 50.0001 33.3337C50.0001 33.9239 49.8004 34.4187 49.4011 34.818C49.0018 35.2173 48.507 35.417 47.9167 35.417H43.7501V39.5837C43.7501 40.1739 43.5504 40.6687 43.1511 41.068C42.7518 41.4673 42.257 41.667 41.6667 41.667C41.0765 41.667 40.5817 41.4673 40.1824 41.068C39.7831 40.6687 39.5834 40.1739 39.5834 39.5837V35.417ZM22.0834 28.7503L41.4584 9.32324C41.8404 8.9413 42.3265 8.75033 42.9167 8.75033C43.507 8.75033 43.9931 8.9413 44.3751 9.32324C44.757 9.70519 44.948 10.1913 44.948 10.7816C44.948 11.3719 44.757 11.858 44.3751 12.2399L23.5417 33.1253C23.1251 33.542 22.639 33.7503 22.0834 33.7503C21.5279 33.7503 21.0417 33.542 20.6251 33.1253L14.6876 27.1878C14.3056 26.8059 14.1147 26.3198 14.1147 25.7295C14.1147 25.1392 14.3056 24.6531 14.6876 24.2712C15.0695 23.8892 15.5556 23.6982 16.1459 23.6982C16.7362 23.6982 17.2223 23.8892 17.6042 24.2712L22.0834 28.7503Z" fill="#092083"/>
</g>
</svg>
