<svg width="50" height="50" viewBox="0 0 50 50" fill="none" xmlns="http://www.w3.org/2000/svg">
<mask id="mask0_125_14807" style="mask-type:alpha" maskUnits="userSpaceOnUse" x="0" y="0" width="50" height="50">
<rect width="50" height="50" fill="#D9D9D9"/>
</mask>
<g mask="url(#mask0_125_14807)">
<path d="M25.0001 45.8337C22.1181 45.8337 19.4098 45.2868 16.8751 44.193C14.3404 43.0993 12.1355 41.6149 10.2605 39.7399C8.3855 37.8649 6.90112 35.6601 5.80737 33.1253C4.71362 30.5906 4.16675 27.8823 4.16675 25.0003C4.16675 22.1184 4.71362 19.41 5.80737 16.8753C6.90112 14.3406 8.3855 12.1357 10.2605 10.2607C12.1355 8.38574 14.3404 6.90137 16.8751 5.80762C19.4098 4.71387 22.1181 4.16699 25.0001 4.16699C27.882 4.16699 30.5904 4.71387 33.1251 5.80762C35.6598 6.90137 37.8647 8.38574 39.7397 10.2607C41.6147 12.1357 43.099 14.3406 44.1928 16.8753C45.2865 19.41 45.8334 22.1184 45.8334 25.0003C45.8334 27.8823 45.2865 30.5906 44.1928 33.1253C43.099 35.6601 41.6147 37.8649 39.7397 39.7399C37.8647 41.6149 35.6598 43.0993 33.1251 44.193C30.5904 45.2868 27.882 45.8337 25.0001 45.8337ZM25.0001 41.667C26.8751 41.667 28.6806 41.3632 30.4167 40.7555C32.1529 40.1479 33.7501 39.2712 35.2084 38.1253L11.8751 14.792C10.7292 16.2503 9.85251 17.8475 9.24487 19.5837C8.63723 21.3198 8.33342 23.1253 8.33342 25.0003C8.33342 29.6531 9.948 33.5941 13.1772 36.8232C16.4063 40.0524 20.3473 41.667 25.0001 41.667ZM38.1251 35.2087C39.2709 33.7503 40.1477 32.1531 40.7553 30.417C41.3629 28.6809 41.6668 26.8753 41.6668 25.0003C41.6668 20.3475 40.0522 16.4066 36.823 13.1774C33.5938 9.94824 29.6529 8.33366 25.0001 8.33366C23.1251 8.33366 21.3195 8.63748 19.5834 9.24512C17.8473 9.85276 16.2501 10.7295 14.7917 11.8753L38.1251 35.2087Z" fill="#F54541"/>
</g>
</svg>
