<svg width="50" height="50" viewBox="0 0 50 50" fill="none" xmlns="http://www.w3.org/2000/svg">
<g clip-path="url(#clip0_125_14575)">
<path d="M49.6215 24.6525L38.3382 5.10903C37.8336 4.23505 36.9298 3.7133 35.9207 3.7133C34.9115 3.7133 34.0077 4.23505 33.5031 5.10903L31.5169 8.54929C30.2437 7.71144 28.8508 7.04926 27.3874 6.5779V5.368C27.3874 2.40857 24.9798 0.000976562 22.0204 0.000976562C19.061 0.000976562 16.6534 2.40857 16.6534 5.368V6.57439C10.1556 8.67438 5.47327 14.4766 5.47327 21.288V33.5611H4.94644C2.21893 33.5612 0 35.78 0 38.5075C0 41.235 2.21893 43.4538 4.94634 43.4538H15.1965C15.3474 47.0881 18.3498 49.9985 22.0204 49.9985C25.691 49.9985 28.6935 47.088 28.8444 43.4538H39.0945C41.822 43.4538 44.0408 41.2349 44.0408 38.5075C44.0408 35.78 41.8219 33.5612 39.0945 33.5612H38.5676V28.8398H47.204C48.2132 28.8398 49.1169 28.3181 49.6215 27.4441C50.1262 26.5701 50.1262 25.5265 49.6215 24.6525ZM19.5829 5.3681C19.5829 4.02402 20.6764 2.93062 22.0204 2.93062C23.3645 2.93062 24.4579 4.02402 24.4579 5.3681V5.90508C23.6537 5.792 22.8389 5.73419 22.0204 5.73419C21.1924 5.73419 20.3786 5.79239 19.5829 5.90333V5.3681ZM22.0204 47.0691C19.9654 47.0691 18.2777 45.4719 18.1305 43.4539H25.9105C25.7631 45.4718 24.0754 47.0691 22.0204 47.0691ZM41.1113 38.5075C41.1113 39.6196 40.2065 40.5243 39.0945 40.5243H4.94634C3.83429 40.5243 2.92954 39.6196 2.92954 38.5075C2.92954 37.3954 3.83429 36.4907 4.94634 36.4907H39.0944C40.2065 36.4907 41.1113 37.3953 41.1113 38.5075ZM35.6381 33.5612H8.40271V21.2881C8.40271 14.327 14.5116 8.66374 22.0204 8.66374C24.9057 8.66374 27.7294 9.52229 30.0488 11.0921L22.2196 24.6525C21.7151 25.5265 21.7151 26.5701 22.2196 27.4441C22.7242 28.318 23.6279 28.8398 24.6371 28.8398H35.638V33.5612H35.6381ZM24.8762 25.9103L35.9206 6.78082L46.965 25.9103H24.8762Z" fill="#F54541"/>
<path d="M34.4558 14.4003V16.9105C34.4558 17.7194 35.1116 18.3752 35.9206 18.3752C36.7295 18.3752 37.3854 17.7194 37.3854 16.9105V14.4003C37.3854 13.5914 36.7295 12.9355 35.9206 12.9355C35.1116 12.9355 34.4558 13.5914 34.4558 14.4003Z" fill="#F54541"/>
<path d="M37.3566 21.4905C37.2318 20.8897 36.7442 20.4213 36.1362 20.3285C35.5321 20.2364 34.9155 20.5483 34.6292 21.0872C34.3414 21.6288 34.4249 22.3043 34.8353 22.7602C35.2452 23.2154 35.9163 23.3624 36.4807 23.1292C37.115 22.8669 37.4966 22.166 37.3566 21.4905Z" fill="#F54541"/>
</g>
<defs>
<clipPath id="clip0_125_14575">
<rect width="50" height="50" fill="white"/>
</clipPath>
</defs>
</svg>
