<svg width="50" height="51" viewBox="0 0 50 51" fill="none" xmlns="http://www.w3.org/2000/svg">
<g clip-path="url(#clip0_125_13773)">
<path d="M43.718 34.9763C45.378 33.0363 46.2675 30.5546 46.2179 28.0021C46.2179 22.948 43.0406 18.8361 39.135 18.8361C38.4214 18.8369 37.7142 18.9746 37.052 19.2419V6.33714C37.052 4.95634 35.9329 3.8372 34.552 3.8372H23.6364C23.242 1.8953 21.5347 0.5 19.5535 0.5C17.572 0.5 15.8646 1.8953 15.4702 3.8372H4.55463C3.17421 3.8372 2.05469 4.95634 2.05469 6.33714V43.834C2.05469 45.2144 3.17421 46.3336 4.55463 46.3336H9.37105C9.84098 46.8619 10.5138 47.1647 11.2206 47.167H17.0536V49.6666C17.0547 49.9877 17.2401 50.2792 17.5304 50.4165C17.6414 50.471 17.7631 50.4996 17.887 50.5C18.0793 50.5 18.2654 50.4333 18.4142 50.3116L23.2771 46.3336H28.7603C29.1768 48.7359 33.1339 50.5 38.302 50.5C43.7645 50.5 47.8844 48.5303 47.8844 45.917V45.5005C48.029 41.9089 46.7912 38.3981 44.4263 35.6911C44.2032 35.4454 43.9682 35.207 43.718 34.9763ZM40.2366 44.508C39.3791 43.9763 38.6365 43.279 38.0517 42.4566L39.3769 37.152C39.4974 37.147 39.6191 37.1421 39.7385 37.1287L41.8715 41.9264C41.4885 42.8797 40.9343 43.7543 40.2366 44.508ZM29.2134 41.3341H27.3513L18.4142 34.023C18.1651 33.8194 17.821 33.7774 17.53 33.9151C17.239 34.0532 17.0536 34.3461 17.0536 34.6681V37.1676H11.2206C9.84022 37.1676 8.72108 38.2871 8.72108 39.6676V41.3341H7.05457V8.83671H11.374C11.726 9.83188 12.6651 10.499 13.7206 10.5032H25.3861C26.4419 10.499 27.381 9.83188 27.7327 8.83671H32.0525V28.0021C32.0262 30.1873 32.6674 32.3283 33.8906 34.1398C33.6137 34.3496 33.3463 34.5655 33.0915 34.7947C31.163 36.5287 29.81 38.8101 29.2134 41.3341ZM34.9804 35.4088C35.7425 36.1496 36.6767 36.6885 37.6993 36.9777L36.8052 40.5609C35.934 39.0008 35.2108 37.3629 34.6455 35.6678C34.7546 35.5847 34.8664 35.4939 34.9804 35.4088ZM42.4615 36.0897C42.6057 36.2213 42.745 36.3552 42.8781 36.4929C42.875 37.4915 42.7808 38.4878 42.5966 39.4692L41.3634 36.6946C41.7486 36.5299 42.1163 36.3269 42.4615 36.0897ZM41.9458 34.4007C41.9275 34.4144 41.91 34.4289 41.8932 34.4445C41.1265 35.1098 40.15 35.484 39.135 35.5011C37.0795 35.5011 35.2878 33.9082 34.3712 31.5658C35.802 30.7518 36.5771 29.6686 36.5771 28.4769C36.6782 27.2888 37.4155 26.249 38.5034 25.7603C40.2217 27.1419 42.3471 27.9185 44.5514 27.9704V28.0021C44.6396 30.4097 43.6909 32.7395 41.9458 34.4007ZM44.4046 26.2963C40.1493 25.9629 38.6762 23.5366 38.6086 23.4214C38.3813 23.0212 37.8728 22.8805 37.4723 23.1078C37.0718 23.3348 36.9315 23.8436 37.1584 24.2437C37.171 24.2662 37.2313 24.3654 37.3327 24.5088C35.9054 25.3358 34.9934 26.8291 34.9106 28.4769C34.8175 29.0823 34.4426 29.6079 33.9006 29.8932C33.7812 29.27 33.7205 28.6368 33.719 28.0021C33.719 23.8665 36.1487 20.5026 39.135 20.5026C41.6975 20.5026 43.8446 22.9816 44.4046 26.2963ZM35.3855 6.33714V20.2402C34.7363 20.7719 34.174 21.402 33.719 22.1073V8.00365C33.719 7.54325 33.3459 7.1702 32.8855 7.1702H27.886V5.5037H34.552C35.0124 5.5037 35.3855 5.87675 35.3855 6.33714ZM19.5535 2.1707C20.609 2.17489 21.5481 2.84203 21.8998 3.8372H17.2069C17.5586 2.84203 18.4977 2.17489 19.5535 2.1707ZM26.2195 5.5037V8.00365C26.2195 8.46366 25.8465 8.83671 25.3861 8.83671H13.7206C13.2602 8.83671 12.8871 8.46366 12.8871 8.00365V5.5037H26.2195ZM4.55463 44.6671C4.09462 44.6671 3.72157 44.294 3.72157 43.834V6.33714C3.72157 5.87675 4.09462 5.5037 4.55463 5.5037H11.2206V7.1702H6.22113C5.76112 7.1702 5.38807 7.54325 5.38807 8.00365V42.1675C5.38807 42.6275 5.76112 43.0006 6.22113 43.0006H8.72108V44.6671H4.55463ZM18.7201 46.3336C18.7201 45.8736 18.347 45.5005 17.887 45.5005H11.2206C10.7606 45.5005 10.3876 45.1275 10.3876 44.6671V39.6676C10.3876 39.2076 10.7606 38.8341 11.2206 38.8341H17.887C18.347 38.8341 18.7201 38.4611 18.7201 38.0011V36.4261L25.737 42.1675L18.7201 47.9085V46.3336ZM27.3513 43.0006H28.8927C28.8194 43.5308 28.766 44.0839 28.7408 44.6671H25.3136L27.3513 43.0006ZM30.386 45.917V45.5005C30.2449 42.372 31.2923 39.306 33.3181 36.9178C34.1565 39.235 36.307 44.2929 39.5516 46.0147V48.7935C39.1484 48.8186 38.7353 48.8358 38.302 48.8358C33.3974 48.8335 30.386 47.1354 30.386 45.917ZM46.2179 45.917C46.2179 46.8703 44.3687 48.1126 41.2184 48.6111V45.8747C42.2457 44.8372 43.036 43.5895 43.5349 42.2175L43.5498 42.1774C43.9995 40.9835 44.2947 39.7374 44.4279 38.4683C45.6664 40.6006 46.2862 43.0357 46.2179 45.5005V45.917Z" fill="#092083"/>
<path d="M26.4453 13.1498C26.263 13.0247 26.0387 12.977 25.8213 13.0175C25.6038 13.0575 25.4112 13.1826 25.2861 13.365L17.8225 24.2199L14.948 21.3458C14.6226 21.0208 14.0951 21.0208 13.7697 21.3458L11.4132 23.7023C11.0878 24.0277 11.0878 24.5552 11.4132 24.8806L17.8294 31.2967C17.9854 31.4531 18.1975 31.5408 18.4183 31.5408H18.4942C18.741 31.5183 18.9649 31.3871 19.1049 31.1827L29.406 16.1964C29.5311 16.014 29.5788 15.7898 29.5384 15.5723C29.4983 15.3549 29.3732 15.1623 29.1909 15.0372L26.4453 13.1498ZM18.3035 29.4094L13.1846 24.2916L14.3629 23.1134L17.3568 26.1073C17.5307 26.2846 17.7764 26.3735 18.0235 26.348C18.2703 26.3254 18.4942 26.1942 18.6342 25.9898L26.1928 14.9956L27.566 15.9389L18.3035 29.4094Z" fill="#092083"/>
</g>
<defs>
<clipPath id="clip0_125_13773">
<rect width="50" height="50" fill="white" transform="translate(0 0.5)"/>
</clipPath>
</defs>
</svg>
